<?xml version="1.0" encoding="UTF-8"?>
<svg id="Layer_1" data-name="Layer 1" xmlns="http://www.w3.org/2000/svg" viewBox="0 0 1000.97 126.72" fill="#282828">
  <defs>
    <style>
      .cls-1 {
        stroke-width: 0px;
      }
    </style>
  </defs>
  <path class="cls-1" d="m21.78,2.16v102.6h52.56v19.8H0V2.16h21.78Z"/>
  <path class="cls-1" d="m105.12,21.42v30.24h58.14v19.26h-58.14v34.38h68.58v19.26h-90.18V2.16h85.68v19.26h-64.08Z"/>
  <path class="cls-1" d="m225.36,84.6c1.8,6.12,3.96,15.48,3.96,16.2l4.68-16.2L259.56,2.16h22.32l-39.6,122.4h-26.46L177.84,2.16h22.68l24.84,82.44Z"/>
  <path class="cls-1" d="m312.48,21.42v30.24h58.14v19.26h-58.14v34.38h68.58v19.26h-90.18V2.16h85.68v19.26h-64.08Z"/>
  <path class="cls-1" d="m458.1,72.18c2.7,4.14,7.74,12.24,9.36,14.94,0-3.96-.36-26.64-.36-43.92V2.16h21.42v122.4h-20.16l-48.24-73.62c-3.78-5.94-7.56-12.6-7.74-12.6.18,5.76.36,24.84.36,45.36v40.86h-21.42V2.16h20.16l46.62,70.02Z"/>
  <path class="cls-1" d="m503.64,124.56V2.16h48.06c15.3,0,21.78,1.62,27.54,4.5,9.72,4.86,16.02,14.4,16.02,27.36s-7.02,21.78-16.2,25.74c11.16,4.5,20.34,14.58,20.34,29.88,0,13.68-6.48,24.12-16.74,29.7-5.94,3.24-12.42,5.22-28.26,5.22h-50.76Zm62.1-101.52c-3.42-1.62-7.02-2.16-15.66-2.16h-24.84v31.5h24.84c5.4,0,12.6.18,17.28-2.7,4.14-2.7,6.66-7.2,6.66-13.14,0-6.3-3.6-11.34-8.28-13.5Zm-40.5,82.44h25.74c10.62,0,15.3-.72,19.44-3.06,4.32-2.7,7.38-7.92,7.38-14.76s-3.06-12.06-7.38-14.76c-4.32-2.7-9.54-3.06-19.44-3.06h-25.74v35.64Z"/>
  <path class="cls-1" d="m633.05,21.42v30.24h58.14v19.26h-58.14v34.38h68.58v19.26h-90.18V2.16h85.68v19.26h-64.08Z"/>
  <path class="cls-1" d="m704.88,2.16h93.06v19.26h-35.64v103.14h-21.6V21.42h-35.82V2.16Z"/>
  <path class="cls-1" d="m805.13,2.16h93.06v19.26h-35.64v103.14h-21.6V21.42h-35.82V2.16Z"/>
  <path class="cls-1" d="m981.17,33.66c-6.84-8.46-18-14.76-31.68-14.76s-22.5,7.02-22.5,16.38,5.94,12.42,19.8,15.48l14.76,3.24c22.86,5.22,39.42,12.6,39.42,34.92s-18.54,37.8-49.14,37.8c-26.64,0-44.82-13.14-53.28-25.02l18-12.96c5.58,9.18,19.08,18.72,36.36,18.72,16.38,0,24.84-6.84,24.84-16.56s-8.46-13.14-20.88-15.84l-16.38-3.6c-19.98-4.32-36.72-12.78-36.72-35.1S924.11,0,950.03,0s40.32,12.42,47.52,20.34l-16.38,13.32Z"/>
</svg>